<?xml version="1.0" encoding="UTF-8" standalone="no"?>
<svg width="180px" height="180px" viewBox="0 0 180 180" version="1.1" xmlns="http://www.w3.org/2000/svg" xmlns:xlink="http://www.w3.org/1999/xlink">
    <!-- Generator: Sketch 39.1 (31720) - http://www.bohemiancoding.com/sketch -->
    <title>apple-touch-icon</title>
    <desc>Created with Sketch.</desc>
    <defs></defs>
    <g id="Page-1" stroke="none" stroke-width="1" fill="none" fill-rule="evenodd">
        <g id="apple-touch-icon">
            <rect id="Background" fill="#000000" x="0" y="0" width="180" height="180"></rect>
            <path d="M59.792,67.384 L59.792,60.216 L51.664,60.216 C50.938663,60.216 50.1173379,60.3973315 49.2,60.76 C48.2826621,61.1226685 47.4293373,61.6559965 46.64,62.36 C45.8506627,63.0640035 45.1786694,63.9599946 44.624,65.048 C44.0693306,66.1360054 43.792,67.4053261 43.792,68.856 L43.792,80.888 C43.792,81.954672 43.5786688,82.8613296 43.152,83.608 C42.7253312,84.3546704 42.2133363,84.9519978 41.616,85.4 C41.0186637,85.8480022 40.3786701,86.167999 39.696,86.36 C39.0133299,86.552001 38.4373357,86.648 37.968,86.648 L37.968,92.216 C38.4373357,92.216 39.0133299,92.311999 39.696,92.504 C40.3786701,92.696001 41.0186637,92.9946646 41.616,93.4 C42.2133363,93.8053354 42.7253312,94.3493299 43.152,95.032 C43.5786688,95.7146701 43.792,96.5466618 43.792,97.528 L43.792,109.944 C43.792,111.394674 44.0693306,112.663995 44.624,113.752 C45.1786694,114.840005 45.8506627,115.735996 46.64,116.44 C47.4293373,117.144004 48.2826621,117.677332 49.2,118.04 C50.1173379,118.402668 50.938663,118.584 51.664,118.584 L59.792,118.584 L59.792,111.416 L56.336,111.416 C55.5679962,111.416 54.9600022,111.266668 54.512,110.968 C54.0639978,110.669332 53.7120013,110.296002 53.456,109.848 C53.1999987,109.399998 53.0400003,108.898669 52.976,108.344 C52.9119997,107.789331 52.88,107.277336 52.88,106.808 L52.88,96.568 C52.88,95.2026598 52.6346691,94.082671 52.144,93.208 C51.6533309,92.333329 51.0773366,91.629336 50.416,91.096 C49.7546634,90.562664 49.061337,90.1786678 48.336,89.944 C47.610663,89.7093322 47.0133357,89.5706669 46.544,89.528 L46.544,89.336 C47.0133357,89.2933331 47.610663,89.1653344 48.336,88.952 C49.061337,88.7386656 49.7546634,88.365336 50.416,87.832 C51.0773366,87.298664 51.6533309,86.5520048 52.144,85.592 C52.6346691,84.6319952 52.88,83.3626746 52.88,81.784 L52.88,72.056 C52.88,71.5439974 52.9119997,71.0106694 52.976,70.456 C53.0400003,69.9013306 53.1999987,69.4000022 53.456,68.952 C53.7120013,68.5039978 54.0639978,68.1306682 54.512,67.832 C54.9600022,67.5333318 55.5679962,67.384 56.336,67.384 L59.792,67.384 Z M81.104,67.384 L81.104,60.216 L72.976,60.216 C72.250663,60.216 71.4293379,60.3973315 70.512,60.76 C69.5946621,61.1226685 68.7413373,61.6559965 67.952,62.36 C67.1626627,63.0640035 66.4906694,63.9599946 65.936,65.048 C65.3813306,66.1360054 65.104,67.4053261 65.104,68.856 L65.104,80.888 C65.104,81.954672 64.8906688,82.8613296 64.464,83.608 C64.0373312,84.3546704 63.5253363,84.9519978 62.928,85.4 C62.3306637,85.8480022 61.6906701,86.167999 61.008,86.36 C60.3253299,86.552001 59.7493357,86.648 59.28,86.648 L59.28,92.216 C59.7493357,92.216 60.3253299,92.311999 61.008,92.504 C61.6906701,92.696001 62.3306637,92.9946646 62.928,93.4 C63.5253363,93.8053354 64.0373312,94.3493299 64.464,95.032 C64.8906688,95.7146701 65.104,96.5466618 65.104,97.528 L65.104,109.944 C65.104,111.394674 65.3813306,112.663995 65.936,113.752 C66.4906694,114.840005 67.1626627,115.735996 67.952,116.44 C68.7413373,117.144004 69.5946621,117.677332 70.512,118.04 C71.4293379,118.402668 72.250663,118.584 72.976,118.584 L81.104,118.584 L81.104,111.416 L77.648,111.416 C76.8799962,111.416 76.2720022,111.266668 75.824,110.968 C75.3759978,110.669332 75.0240013,110.296002 74.768,109.848 C74.5119987,109.399998 74.3520003,108.898669 74.288,108.344 C74.2239997,107.789331 74.192,107.277336 74.192,106.808 L74.192,96.568 C74.192,95.2026598 73.9466691,94.082671 73.456,93.208 C72.9653309,92.333329 72.3893366,91.629336 71.728,91.096 C71.0666634,90.562664 70.373337,90.1786678 69.648,89.944 C68.922663,89.7093322 68.3253357,89.5706669 67.856,89.528 L67.856,89.336 C68.3253357,89.2933331 68.922663,89.1653344 69.648,88.952 C70.373337,88.7386656 71.0666634,88.365336 71.728,87.832 C72.3893366,87.298664 72.9653309,86.5520048 73.456,85.592 C73.9466691,84.6319952 74.192,83.3626746 74.192,81.784 L74.192,72.056 C74.192,71.5439974 74.2239997,71.0106694 74.288,70.456 C74.3520003,69.9013306 74.5119987,69.4000022 74.768,68.952 C75.0240013,68.5039978 75.3759978,68.1306682 75.824,67.832 C76.2720022,67.5333318 76.8799962,67.384 77.648,67.384 L81.104,67.384 Z M98.896,111.416 L98.896,118.584 L107.024,118.584 C107.749337,118.584 108.570662,118.402668 109.488,118.04 C110.405338,117.677332 111.258663,117.144004 112.048,116.44 C112.837337,115.735996 113.509331,114.840005 114.064,113.752 C114.618669,112.663995 114.896,111.394674 114.896,109.944 L114.896,97.528 C114.896,96.5466618 115.109331,95.7146701 115.536,95.032 C115.962669,94.3493299 116.474664,93.8053354 117.072,93.4 C117.669336,92.9946646 118.30933,92.696001 118.992,92.504 C119.67467,92.311999 120.271997,92.216 120.784,92.216 L120.784,86.648 C120.271997,86.648 119.67467,86.552001 118.992,86.36 C118.30933,86.167999 117.669336,85.8480022 117.072,85.4 C116.474664,84.9519978 115.962669,84.3546704 115.536,83.608 C115.109331,82.8613296 114.896,81.954672 114.896,80.888 L114.896,68.856 C114.896,67.4053261 114.618669,66.1360054 114.064,65.048 C113.509331,63.9599946 112.837337,63.0640035 112.048,62.36 C111.258663,61.6559965 110.405338,61.1226685 109.488,60.76 C108.570662,60.3973315 107.749337,60.216 107.024,60.216 L98.896,60.216 L98.896,67.384 L102.352,67.384 C103.120004,67.384 103.727998,67.5333318 104.176,67.832 C104.624002,68.1306682 104.975999,68.5039978 105.232,68.952 C105.488001,69.4000022 105.648,69.9013306 105.712,70.456 C105.776,71.0106694 105.808,71.5439974 105.808,72.056 L105.808,81.784 C105.808,83.3626746 106.053331,84.6319952 106.544,85.592 C107.034669,86.5520048 107.610663,87.298664 108.272,87.832 C108.933337,88.365336 109.626663,88.7386656 110.352,88.952 C111.077337,89.1653344 111.674664,89.2933331 112.144,89.336 L112.144,89.528 C111.674664,89.5706669 111.077337,89.7093322 110.352,89.944 C109.626663,90.1786678 108.933337,90.562664 108.272,91.096 C107.610663,91.629336 107.034669,92.333329 106.544,93.208 C106.053331,94.082671 105.808,95.2026598 105.808,96.568 L105.808,106.808 C105.808,107.277336 105.776,107.789331 105.712,108.344 C105.648,108.898669 105.488001,109.399998 105.232,109.848 C104.975999,110.296002 104.624002,110.669332 104.176,110.968 C103.727998,111.266668 103.120004,111.416 102.352,111.416 L98.896,111.416 Z M120.208,111.416 L120.208,118.584 L128.336,118.584 C129.061337,118.584 129.882662,118.402668 130.8,118.04 C131.717338,117.677332 132.570663,117.144004 133.36,116.44 C134.149337,115.735996 134.821331,114.840005 135.376,113.752 C135.930669,112.663995 136.208,111.394674 136.208,109.944 L136.208,97.528 C136.208,96.5466618 136.421331,95.7146701 136.848,95.032 C137.274669,94.3493299 137.786664,93.8053354 138.384,93.4 C138.981336,92.9946646 139.62133,92.696001 140.304,92.504 C140.98667,92.311999 141.583997,92.216 142.096,92.216 L142.096,86.648 C141.583997,86.648 140.98667,86.552001 140.304,86.36 C139.62133,86.167999 138.981336,85.8480022 138.384,85.4 C137.786664,84.9519978 137.274669,84.3546704 136.848,83.608 C136.421331,82.8613296 136.208,81.954672 136.208,80.888 L136.208,68.856 C136.208,67.4053261 135.930669,66.1360054 135.376,65.048 C134.821331,63.9599946 134.149337,63.0640035 133.36,62.36 C132.570663,61.6559965 131.717338,61.1226685 130.8,60.76 C129.882662,60.3973315 129.061337,60.216 128.336,60.216 L120.208,60.216 L120.208,67.384 L123.664,67.384 C124.432004,67.384 125.039998,67.5333318 125.488,67.832 C125.936002,68.1306682 126.287999,68.5039978 126.544,68.952 C126.800001,69.4000022 126.96,69.9013306 127.024,70.456 C127.088,71.0106694 127.12,71.5439974 127.12,72.056 L127.12,81.784 C127.12,83.3626746 127.365331,84.6319952 127.856,85.592 C128.346669,86.5520048 128.922663,87.298664 129.584,87.832 C130.245337,88.365336 130.938663,88.7386656 131.664,88.952 C132.389337,89.1653344 132.986664,89.2933331 133.456,89.336 L133.456,89.528 C132.986664,89.5706669 132.389337,89.7093322 131.664,89.944 C130.938663,90.1786678 130.245337,90.562664 129.584,91.096 C128.922663,91.629336 128.346669,92.333329 127.856,93.208 C127.365331,94.082671 127.12,95.2026598 127.12,96.568 L127.12,106.808 C127.12,107.277336 127.088,107.789331 127.024,108.344 C126.96,108.898669 126.800001,109.399998 126.544,109.848 C126.287999,110.296002 125.936002,110.669332 125.488,110.968 C125.039998,111.266668 124.432004,111.416 123.664,111.416 L120.208,111.416 Z" id="{{-}}" fill="#FFFFFF"></path>
        </g>
    </g>
</svg>